<svg xmlns="http://www.w3.org/2000/svg" xmlns:xlink="http://www.w3.org/1999/xlink" viewBox="0 0 94 94"><defs><style>.cls-1{fill:url(#linear-gradient);}.cls-2{fill:#fdfdfd;}</style><linearGradient id="linear-gradient" y1="47" x2="94" y2="47" gradientUnits="userSpaceOnUse"><stop offset="0" stop-color="#41c3d4"/><stop offset="1" stop-color="#009fd2"/></linearGradient></defs><g id="Layer_2" data-name="Layer 2"><g id="Layer_3" data-name="Layer 3"><circle class="cls-1" cx="47" cy="47" r="47"/><path class="cls-2" d="M26,70.3a1,1,0,0,1-.45-.92c0-1,0-2.07,0-3.1,0-.61.23-.84.82-.84.95,0,.95,0,.95-1q0-7.24,0-14.5c0-.33-.06-.45-.42-.44-.54,0-.77-.23-.78-.78,0-.71,0-1.41,0-2.12s.23-.81.81-.79c.31,0,.39-.07.39-.39q0-7.58,0-15.17c0-.3-.06-.39-.38-.38-1.39,0-1.4,0-1.4-1.41V25.81c0-.57.24-.8.82-.8,1.09,0,2.18,0,3.27,0,.54,0,.76.25.78.79,0,.32-.15.75.07.92s.62.06.94.06c.84,0,1.68,0,2.52,0,.51,0,.81.26.8.68s-.3.64-.78.64H30.8c-.27,0-.38,0-.37.35.07,1.32-.05,1.49-1.42,1.42-.26,0-.35,0-.35.33q0,7.64,0,15.26c0,.31.11.35.38.34.59,0,.82.23.82.83s0,1.39,0,2.08-.24.81-.81.79c-.31,0-.39.07-.39.38q0,7.59,0,15.17c0,.3.06.4.38.4,1.38,0,1.39,0,1.39,1.4,0,.27.06.36.36.36H46c.27,0,.38,0,.37-.35,0-.63.21-.84.85-.84H49.3c.54,0,.79.24.77.79,0,.32.07.41.4.4h8.8a1.77,1.77,0,0,1,.4,0,.62.62,0,0,1,.57.63.62.62,0,0,1-.57.67,1.77,1.77,0,0,1-.4,0c-2.93,0-5.86,0-8.8,0-.33,0-.42.08-.4.41,0,.54-.23.79-.77.8H47.13c-.54,0-.78-.26-.76-.8,0-.35-.09-.41-.41-.4q-7.56,0-15.13,0c-.33,0-.45.09-.4.41,0,.15,0,.3,0,.45a.87.87,0,0,1-.44.92Zm2-41.77c.36,0,.85.18,1.06-.06s.06-.68.05-1,.16-.84-.08-1.05-.67-.06-1-.05-.85-.17-1.05.08-.07.67-.06,1-.16.84.08,1S27.65,28.53,28,28.53ZM29.09,67.9c0-.36.14-.85,0-1.06s-.72-.06-1.1-.07-.78-.12-1,0-.06.67-.07,1-.12.86.06,1.07.72.06,1.1.07.78.12,1,0S29.08,68.25,29.09,67.9ZM28,48.17c.4.1.59,0,.55-.47s.06-.65-.5-.6-.62,0-.6.55S27.53,48.3,28,48.17ZM47.71,67.85c-.08.38,0,.62.45.57s.67.08.61-.49c0-.39,0-.65-.54-.6S47.56,67.36,47.71,67.85Z"/><path class="cls-2" d="M66.44,70.3C65.91,70,66,69.5,66,69s-.09-.51-.49-.5c-.9,0-1.8,0-2.7,0-.5,0-.81-.27-.8-.68s.31-.64.8-.64h2.87c.26,0,.33-.07.31-.32-.08-1.48.18-1.5,1.44-1.45.28,0,.34-.07.34-.34q0-7.62,0-15.26c0-.27-.07-.34-.34-.33-.65,0-.86-.21-.86-.84s0-1.36,0-2,.22-.84.82-.82c.32,0,.38-.09.38-.39q0-7.59,0-15.17c0-.32-.09-.39-.39-.38-1.37,0-1.4,0-1.38-1.37,0-.34-.09-.4-.41-.4H50.47c-.34,0-.41.08-.4.41,0,.54-.23.78-.77.79-.73,0-1.45,0-2.17,0-.54,0-.79-.25-.76-.81,0-.35-.1-.39-.42-.39H37.33a.66.66,0,1,1,0-1.32c.19,0,.38,0,.57,0,2.7,0,5.4,0,8.1,0,.3,0,.39-.08.38-.39,0-.58.22-.8.79-.81s1.42,0,2.12,0,.81.23.79.82c0,.32.09.38.39.37q7.57,0,15.17,0c.31,0,.38-.09.38-.39C66,25,66,25,67.42,25c.84,0,1.68,0,2.52,0a.94.94,0,0,1,.93.45v4a.89.89,0,0,1-.93.45c-.15,0-.3,0-.44,0-.33-.05-.41.07-.41.4q0,7.56,0,15.13c0,.32.06.42.4.41.55,0,.79.22.8.76,0,.72,0,1.45,0,2.17,0,.52-.25.79-.75.76s-.45.1-.45.46q0,7.5,0,15c0,.41.1.53.5.49s1-.1,1.28.44c0,1.38,0,2.77,0,4.16,0,.22-.05.27-.27.27Zm3.11-42.9c0-.3.11-.78-.08-1s-.69-.06-1.06-.07-.81-.11-1,.06-.06.67-.07,1-.12.84.07,1.06.69.06,1,.06.81.12,1-.06S69.51,27.82,69.55,27.4Zm0,40.47c0-.35.14-.82,0-1s-.69-.06-1-.07-.82-.13-1,0-.07.69-.08,1.05-.12.82,0,1,.69.07,1.05.08.82.13,1,0S69.5,68.23,69.52,67.87ZM48.73,27.44c.12-.42,0-.57-.47-.54s-.64,0-.59.51.06.6.55.59S48.85,27.89,48.73,27.44ZM69,47.65c.11-.41,0-.57-.48-.54s-.63,0-.59.51.06.6.56.59S69.07,48.11,69,47.65Z"/><path class="cls-2" d="M48.22,32.14h4a1.77,1.77,0,0,1,1.89,1.34q4.92,14,9.85,28.07a1.11,1.11,0,0,1-1.15,1.62H55.54a1.79,1.79,0,0,1-1.9-1.34q-.86-2.31-1.7-4.63a.44.44,0,0,0-.49-.36H45a.43.43,0,0,0-.49.36q-.84,2.29-1.7,4.59a1.82,1.82,0,0,1-2,1.38H33.69c-1.06,0-1.53-.66-1.17-1.66q4.89-14,9.8-27.95a1.8,1.8,0,0,1,2-1.42ZM58.31,61.83c-.06-.17-.1-.31-.15-.45q-3-8.67-6.08-17.34a1.31,1.31,0,0,1-.11-.42.61.61,0,0,1,.52-.67.64.64,0,0,1,.78.48l1,3q2.64,7.52,5.25,15c.11.29.23.42.56.41.72,0,1.44,0,2.16,0,.29,0,.33-.09.23-.33a1.84,1.84,0,0,1-.09-.25Q58.83,51,55.22,40.72q-1.2-3.39-2.38-6.78c-.08-.23-.15-.46-.45-.46H49.8c.05.16.08.29.13.41L52.09,40a4.19,4.19,0,0,1,.14.47.6.6,0,0,1-.39.75A.63.63,0,0,1,51,41c-.06-.12-.09-.25-.14-.37Q49.72,37.3,48.57,34a.68.68,0,0,0-.77-.55c-1.13,0-2.27,0-3.4,0a.76.76,0,0,0-.86.6q-2.65,7.65-5.34,15.27Q36.08,55.39,34,61.43c-.12.35-.07.43.29.42.79,0,1.59,0,2.39,0a.53.53,0,0,0,.59-.41c.12-.33.24-.66.37-1s.49-.64.88-.5a.67.67,0,0,1,.37.94c-.1.3-.22.6-.35.95H41.1c.22,0,.33-.15.4-.34.54-1.46,1.08-2.93,1.63-4.38.1-.25,0-.27-.2-.27a9.38,9.38,0,0,1-1.5,0c-.8-.1-1.34.09-1.45,1a.19.19,0,0,1,0,.08.67.67,0,0,1-.88.36.66.66,0,0,1-.34-.85c.14-.4.29-.8.44-1.2.23-.6.33-.67,1-.67H52c.66,0,.78.08,1,.7l1.89,5.13c.08.23.16.48.49.48C56.34,61.84,57.31,61.83,58.31,61.83Z"/><path class="cls-2" d="M46.06,52.42H41.55c-.76,0-1-.37-.78-1.07,1.53-4.43,3.08-8.85,4.61-13.27.12-.33.29-.59.67-.6s.57.24.69.58q2.34,6.67,4.67,13.34c.22.63,0,1-.71,1Zm0-12.2-.08.09q-1.82,5.25-3.65,10.49c-.11.3,0,.3.24.3.72,0,1.44,0,2.17,0,.31,0,.43-.09.52-.37.64-1.88,1.28-3.76,2-5.62a2.14,2.14,0,0,0,0-1.63C46.83,42.41,46.48,41.33,46.09,40.22Zm2.14,6.1c-.18.51-.32.92-.47,1.33l-1.08,3.11c0,.16-.19.34.15.34h3.08Z"/></g></g></svg>