<svg xmlns="http://www.w3.org/2000/svg" xmlns:xlink="http://www.w3.org/1999/xlink" viewBox="0 0 383.16 383.11"><defs><style>.cls-1{fill:url(#linear-gradient);}</style><linearGradient id="linear-gradient" y1="191.55" x2="383.16" y2="191.55" gradientUnits="userSpaceOnUse"><stop offset="0" stop-color="#41c3d4"/><stop offset="1" stop-color="#009fd2"/></linearGradient></defs><g id="Layer_2" data-name="Layer 2"><g id="Layer_3" data-name="Layer 3"><path class="cls-1" d="M206.58,383.11H176.65c-5.81-1.82-11.92-1.75-17.86-2.83-46.76-8.45-85.62-30.81-115.4-67.67C4.89,264.94-7.81,210.46,4.57,150.48,22,66.19,98.46,2.55,184.63.09,222.17-1,257.43,7.35,289.5,27q76.72,47,91.56,136.17c.73,4.47.5,9.08,2.1,13.4v29.93c-1.39,3.36-1.14,7-1.63,10.48-5.32,37.74-20.15,71.25-45.27,99.95q-46.58,53.22-116.65,64.11C215.26,381.73,210.77,381.47,206.58,383.11Zm-85.73-285a22.07,22.07,0,0,0-7.94,1.17c-15.31,5.17-19.72,24.1-8.14,35.8q26.7,27,53.74,53.66c2.47,2.43,2.08,3.52-.13,5.71q-26.72,26.44-53.22,53.12c-6.36,6.37-8.65,13.89-5.83,22.56,5,15.51,24.14,19.84,36,8.09,17.29-17.11,34.42-34.36,51.62-51.56,4.67-4.67,4.66-4.67,9.29,0L247.57,278c6.36,6.36,13.86,8.7,22.55,5.91,15.52-5,19.95-24.12,8.22-36q-26.44-26.73-53.23-53.11c-2.83-2.78-2.37-4,.15-6.53,17.66-17.43,35.16-35,52.7-52.58,6.35-6.36,8.73-13.85,6-22.54-4.9-15.54-24.13-20-35.94-8.34q-27,26.72-53.66,53.74c-2.2,2.23-3.26,2.19-5.44,0-17.63-17.82-35.42-35.47-53.1-53.25C131.36,100.79,126.14,98.35,120.85,98.12Z"/></g></g></svg>