<svg xmlns="http://www.w3.org/2000/svg" viewBox="0 0 83 83"><defs><style>.cls-1{fill:#fff;}.cls-2{fill:#010101;}</style></defs><g id="Layer_2" data-name="Layer 2"><g id="Layer_3" data-name="Layer 3"><rect class="cls-1" width="83" height="83" rx="13.54"/><path class="cls-2" d="M46.6,56.72V67.16c0,.32,0,.64,0,1a1,1,0,0,1-.94,1.06,5.29,5.29,0,0,1-.8.08H36.56c-1.33,0-1.67-.35-1.68-1.7,0-7.23,0-14.46,0-21.7,0-.68-.19-.8-.82-.79-2,0-3.93,0-5.9,0-1.31,0-1.64-.34-1.64-1.65q0-4,0-8c0-1.35.33-1.67,1.68-1.67,2,0,4,0,6,0,.48,0,.65-.09.64-.62,0-2.12-.07-4.25,0-6.37.14-4,1.35-7.5,4.51-10.12A12.42,12.42,0,0,1,47,13.82c2.71-.12,5.43-.05,8.14-.05.9,0,1.3.39,1.3,1.28,0,2.69,0,5.38,0,8.06,0,.95-.38,1.31-1.4,1.33-1.83,0-3.66,0-5.49.07-2.07,0-2.92.85-3,2.93,0,1.87,0,3.75,0,5.63,0,.46.15.55.58.54,2.41,0,4.83,0,7.25,0,1.42,0,1.77.35,1.77,1.75q0,4,0,8.07c0,1.25-.3,1.56-1.56,1.56-2.39,0-4.79,0-7.19,0-.64,0-.87.1-.86.83C46.63,49.45,46.6,53.08,46.6,56.72Z"/></g></g></svg>