<svg xmlns="http://www.w3.org/2000/svg" viewBox="0 0 83 83"><defs><style>.cls-1{fill:#fff;}.cls-2{fill:#010101;}</style></defs><g id="Layer_2" data-name="Layer 2"><g id="Layer_3" data-name="Layer 3"><rect class="cls-1" width="83" height="83" rx="13.54"/><path class="cls-2" d="M33.43,18.39h16c.12.17.3.07.45.08a25,25,0,0,1,5,.55,11.81,11.81,0,0,1,8.64,7.38,18.65,18.65,0,0,1,1.11,6.94q0,8,0,15.93a24.87,24.87,0,0,1-.45,5,11.94,11.94,0,0,1-7.25,9,18.48,18.48,0,0,1-6.75,1.2c-4.88.15-9.77.11-14.66.06a31.4,31.4,0,0,1-7.17-.6,11.82,11.82,0,0,1-8.35-6.66,16,16,0,0,1-1.37-6.43q-.3-9.3,0-18.59a18.63,18.63,0,0,1,.6-4.45A11.82,11.82,0,0,1,26.4,19.6,19.17,19.17,0,0,1,33,18.47C33.13,18.47,33.31,18.57,33.43,18.39Zm8.1,42.05c1.23,0,2.47,0,3.7,0a53.83,53.83,0,0,0,7.83-.36,7.85,7.85,0,0,0,6.86-6,18.79,18.79,0,0,0,.5-4.42c.14-4.67.1-9.33,0-14a40.08,40.08,0,0,0-.32-5.58,7.94,7.94,0,0,0-6.23-6.94,23.72,23.72,0,0,0-5.11-.47c-4.28-.08-8.57-.07-12.86,0a35.28,35.28,0,0,0-6.16.37,7.81,7.81,0,0,0-6.61,6.08,21.17,21.17,0,0,0-.48,4.83c-.11,3.75-.1,7.49-.07,11.24A59,59,0,0,0,23,52.89,7.94,7.94,0,0,0,26.78,59a10.53,10.53,0,0,0,4.78,1.31C34.88,60.48,38.2,60.44,41.53,60.44Z"/><path class="cls-2" d="M41.55,53.37A11.87,11.87,0,1,1,53.42,41.5,11.89,11.89,0,0,1,41.55,53.37Zm0-4.18a7.7,7.7,0,1,0-7.69-7.67A7.66,7.66,0,0,0,41.55,49.19Z"/><path class="cls-2" d="M53.89,26.39a2.77,2.77,0,1,1,0,5.53,2.77,2.77,0,0,1,0-5.53Z"/></g></g></svg>