<svg xmlns="http://www.w3.org/2000/svg" xmlns:xlink="http://www.w3.org/1999/xlink" viewBox="0 0 263.01 263"><defs><style>.cls-1{fill:url(#linear-gradient);}</style><linearGradient id="linear-gradient" y1="131.5" x2="263.01" y2="131.5" gradientUnits="userSpaceOnUse"><stop offset="0" stop-color="#41c3d4"/><stop offset="1" stop-color="#009fd2"/></linearGradient></defs><g id="Layer_2" data-name="Layer 2"><g id="Layer_5" data-name="Layer 5"><path class="cls-1" d="M120.73,0h20.55c.2.72.8.47,1.26.5a120,120,0,0,1,41.27,10.39q65.72,30.41,77.86,101.94c.47,2.79.23,5.7,1.34,8.39v20.54c-.68.22-.48.82-.52,1.28A129,129,0,0,1,255,176.7a131.66,131.66,0,0,1-162.4,80.44c-65-19.93-104.27-87.43-89.51-153.9A131.51,131.51,0,0,1,112.61,1.38C115.32,1,118.14,1.14,120.73,0ZM98.65,131.41c0,13.26,0,26.52,0,39.78,0,3.61,1,6.62,4.21,8.49s6.51,1.06,9.63-.89q31.68-19.86,63.42-39.65c6.68-4.18,6.63-11.14-.09-15.35Q144.08,104,112.37,84.15c-3-1.91-6.1-2.75-9.4-.91s-4.37,5-4.35,8.65C98.69,105.06,98.65,118.24,98.65,131.41Z"/></g></g></svg>