<svg xmlns="http://www.w3.org/2000/svg" xmlns:xlink="http://www.w3.org/1999/xlink" viewBox="0 0 125 125"><defs><style>.cls-1{fill:url(#linear-gradient);}.cls-2{fill:#fefefe;}</style><linearGradient id="linear-gradient" y1="62.5" x2="125" y2="62.5" gradientUnits="userSpaceOnUse"><stop offset="0" stop-color="#41c3d4"/><stop offset="1" stop-color="#009fd2"/></linearGradient></defs><g id="Layer_2" data-name="Layer 2"><g id="Layer_3" data-name="Layer 3"><circle class="cls-1" cx="62.5" cy="62.5" r="62.5"/><path class="cls-2" d="M42.51,103.76a3.11,3.11,0,0,1-1.79-3.33c.13-2.9-.19-5.81.17-8.7a21.42,21.42,0,0,1,11.75-17c.33-.18.67-.33,1.1-.54-4.37-3.67-6.41-8.27-5.52-14a13.69,13.69,0,0,1,5.27-8.93,14.5,14.5,0,1,1,17.8,22.89A22.14,22.14,0,0,1,76,77.06a21.44,21.44,0,0,1,8.24,16.43c.09,2.39,0,4.79,0,7.17a2.82,2.82,0,0,1-2,3.1H82c-.24-.27-.56-.16-.84-.16H43.67c-.29,0-.6-.11-.84.16Z"/><path class="cls-2" d="M21.23,44.43a3.48,3.48,0,0,1,3.14-1.83c1.3-.1,2.6-.39,3.9-.54a.82.82,0,0,0,.71-.53c.66-1.34,1.37-2.67,2-4a2.53,2.53,0,0,1,4.63,0c.65,1.32,1.34,2.62,2,4a.94.94,0,0,0,.81.62c1.41.16,2.82.39,4.23.59.23,0,.47.07.71.13a2.38,2.38,0,0,1,1.24,4.14c-1.08,1.11-2.23,2.17-3.38,3.22a1,1,0,0,0-.36,1.11c.29,1.42.49,2.85.76,4.28a2.47,2.47,0,0,1-.85,2.6A2.41,2.41,0,0,1,38,58.3c-1.36-.69-2.73-1.38-4.07-2.1a1.08,1.08,0,0,0-1.18,0c-1.34.73-2.71,1.41-4.06,2.1a2.45,2.45,0,0,1-2.8-.14A2.49,2.49,0,0,1,25,55.48c.28-1.45.48-2.91.77-4.36a.83.83,0,0,0-.31-.9c-.69-.63-1.37-1.28-2.05-1.93a12.59,12.59,0,0,1-2.2-2.41Z"/><path class="cls-2" d="M42.83,103.76c.24-.27.55-.16.84-.16h37.5c.28,0,.6-.11.84.16Z"/><path class="cls-2" d="M54.12,41.24c.26-1.48.53-3.17.85-4.86a.85.85,0,0,0-.31-.9c-1.08-1-2.14-2-3.22-3a2.49,2.49,0,0,1-.9-2.72A2.52,2.52,0,0,1,52.9,28c1.49-.18,3-.43,4.46-.62a1,1,0,0,0,.83-.62c.64-1.33,1.34-2.63,2-3.95a2.52,2.52,0,0,1,4.63,0c.65,1.34,1.36,2.67,2,4a.9.9,0,0,0,.78.57c1.55.2,3.09.44,4.63.65a2.44,2.44,0,0,1,2.21,1.7,2.38,2.38,0,0,1-.76,2.62c-1.1,1.07-2.21,2.13-3.33,3.16a.9.9,0,0,0-.32,1c.29,1.44.5,2.9.77,4.35a2.48,2.48,0,0,1-.92,2.65,2.38,2.38,0,0,1-2.72.12c-1.34-.68-2.68-1.35-4-2.07a1.21,1.21,0,0,0-1.32,0c-1.38.76-2.79,1.49-4.22,2.15A2.42,2.42,0,0,1,54.12,41.24Z"/><path class="cls-2" d="M83.31,55.94c.25-1.48.52-3.15.84-4.81a.84.84,0,0,0-.3-.9c-1.09-1-2.14-2-3.22-3a2.49,2.49,0,0,1-.91-2.72,2.54,2.54,0,0,1,2.35-1.77c1.49-.21,3-.44,4.47-.62a.92.92,0,0,0,.83-.6c.6-1.25,1.28-2.47,1.87-3.73a2.58,2.58,0,0,1,4.89,0c.6,1.25,1.27,2.47,1.88,3.73a.86.86,0,0,0,.77.55c1.41.18,2.82.4,4.22.6.24,0,.48.07.72.12A2.39,2.39,0,0,1,103,46.92c-1.09,1.12-2.24,2.17-3.38,3.22a1,1,0,0,0-.38,1.11c.3,1.42.5,2.85.77,4.28a2.47,2.47,0,0,1-.91,2.65,2.41,2.41,0,0,1-2.73.12c-1.28-.65-2.59-1.28-3.85-2a1.43,1.43,0,0,0-1.61,0c-1.3.74-2.64,1.42-4,2.06A2.43,2.43,0,0,1,83.31,55.94Z"/></g></g></svg>