<svg xmlns="http://www.w3.org/2000/svg" viewBox="0 0 83 83"><defs><style>.cls-1{fill:#fff;}.cls-2{fill:#010101;}</style></defs><g id="Layer_2" data-name="Layer 2"><g id="Layer_3" data-name="Layer 3"><rect class="cls-1" width="83" height="83" rx="13.54"/><path class="cls-2" d="M44,38a9.72,9.72,0,0,1,1.92-2.42,10.45,10.45,0,0,1,6.74-2.66A13.87,13.87,0,0,1,59.17,34a9.16,9.16,0,0,1,4.93,6.34,23.3,23.3,0,0,1,.75,6c0,6,0,12,.05,18,0,.38-.13.44-.46.43q-4.39,0-8.79,0c-.43,0-.48-.16-.48-.52q0-7.84,0-15.7a16,16,0,0,0-.3-3.23c-.65-3.25-2.74-4.27-5.64-3.94-2.73.32-4.21,1.93-4.65,4.87a20.6,20.6,0,0,0-.23,3.24c0,4.93,0,9.86,0,14.78,0,.42-.06.58-.54.58-2.89,0-5.78,0-8.68,0-.39,0-.5-.1-.5-.5q0-15.14,0-30.26c0-.4.11-.5.51-.5,2.78,0,5.55,0,8.33,0,.39,0,.49.11.48.48,0,1.07,0,2.13,0,3.2C44,37.5,44,37.68,44,38Z"/><path class="cls-2" d="M28.58,49.25q0,7.53,0,15.06c0,.48-.12.59-.59.59q-4.28,0-8.56,0c-.41,0-.58-.06-.57-.54q0-15.11,0-30.19c0-.42.1-.53.53-.53q4.34,0,8.67,0c.45,0,.52.14.52.55Q28.57,41.72,28.58,49.25Z"/><path class="cls-2" d="M29.33,23.7a5.62,5.62,0,1,1-5.65-5.6A5.66,5.66,0,0,1,29.33,23.7Z"/></g></g></svg>