<svg xmlns="http://www.w3.org/2000/svg" viewBox="0 0 83 83"><defs><style>.cls-1{fill:#fff;}.cls-2{fill:#010101;}</style></defs><g id="Layer_2" data-name="Layer 2"><g id="Layer_3" data-name="Layer 3"><rect class="cls-1" width="83" height="83" rx="13.54"/><path class="cls-2" d="M70.84,47.7l-1,0h-18c-.42,0-.58.05-.54.55.37,5.08,4.51,6.53,8.16,5.87A4.87,4.87,0,0,0,63,51.61a.73.73,0,0,1,.73-.4c2,0,4.09,0,6.13,0,.57,0,.58.22.46.63a9.19,9.19,0,0,1-1.68,3.22c-2.79,3.56-6.61,4.8-11,4.79a14.25,14.25,0,0,1-10-3.87,10.28,10.28,0,0,1-3-5.78,18.93,18.93,0,0,1,.78-10.92A11.41,11.41,0,0,1,54,32.19,15,15,0,0,1,64.7,33.5a11.35,11.35,0,0,1,5.22,6.29,13.22,13.22,0,0,1,.81,3.84c0,.08,0,.15.11.17ZM51.49,43.1H63.26c.19,0,.28,0,.26-.25a5.5,5.5,0,0,0-2-4.07,6.75,6.75,0,0,0-5.43-1.15,4.9,4.9,0,0,0-3.3,2.07A7.92,7.92,0,0,0,51.49,43.1Z"/><path class="cls-2" d="M36.33,39.75a10.7,10.7,0,0,1,2.61,1.46,8,8,0,0,1,2.88,5.48A10.76,10.76,0,0,1,40.19,54,10.16,10.16,0,0,1,33,58.58a29.29,29.29,0,0,1-4.67.36H12.73c-.43,0-.57-.07-.57-.54q0-17.35,0-34.71c0-.44.11-.53.53-.53,5.61,0,11.23,0,16.84,0a14.22,14.22,0,0,1,6.6,1.37,8.08,8.08,0,0,1,4.55,6.74,10.81,10.81,0,0,1-.14,3.31A6.76,6.76,0,0,1,37,39.35Zm-11.4,3.46c-1.91,0-3.5,0-5.08,0-.38,0-.47.1-.47.47q0,4.32,0,8.64c0,.37.12.44.45.43q3.93,0,7.84,0A23,23,0,0,0,30,52.62a4.3,4.3,0,0,0,4.08-3.46,6.17,6.17,0,0,0,0-2.67A3.59,3.59,0,0,0,32.32,44a6.14,6.14,0,0,0-2.12-.65A48.17,48.17,0,0,0,24.93,43.21Zm-.53-5.94h0c1.46,0,2.91,0,4.36,0a6.81,6.81,0,0,0,2.4-.45,3.11,3.11,0,0,0,2-1.73,5.08,5.08,0,0,0,.28-2.64,2.94,2.94,0,0,0-2.37-2.62,11.94,11.94,0,0,0-2-.34c-3.1-.2-6.22,0-9.33-.1-.34,0-.4.11-.4.42q0,3.52,0,7.05c0,.35.08.45.44.44C21.35,37.26,22.88,37.27,24.4,37.27Z"/><path class="cls-2" d="M57.44,29.29c-2.41,0-4.81,0-7.22,0-.42,0-.6-.07-.58-.55,0-1.15,0-2.29,0-3.44,0-.32,0-.47.42-.47q7.35,0,14.71,0c.37,0,.44.13.44.46,0,1.17,0,2.33,0,3.49,0,.41-.12.51-.51.51C62.29,29.28,59.86,29.29,57.44,29.29Z"/></g></g></svg>