<svg xmlns="http://www.w3.org/2000/svg" xmlns:xlink="http://www.w3.org/1999/xlink" viewBox="0 0 125 125"><defs><style>.cls-1{filter:url(#luminosity-noclip);}.cls-2{filter:url(#luminosity-noclip-2);}.cls-3{fill:url(#linear-gradient);}.cls-4{fill:#fdfdfd;}.cls-5{mask:url(#mask);}.cls-6{mask:url(#mask-2);}</style><linearGradient id="linear-gradient" y1="62.5" x2="125" y2="62.5" gradientUnits="userSpaceOnUse"><stop offset="0" stop-color="#41c3d4"/><stop offset="1" stop-color="#009fd2"/></linearGradient><filter id="luminosity-noclip" x="32.77" y="96" width="27" height="8" filterUnits="userSpaceOnUse" color-interpolation-filters="sRGB"><feFlood flood-color="#fff" result="bg"/><feBlend in="SourceGraphic" in2="bg"/></filter><mask id="mask" x="32.77" y="96" width="27" height="8" maskUnits="userSpaceOnUse"><circle class="cls-1" cx="56.27" cy="100.5" r="1.5"/></mask><filter id="luminosity-noclip-2" x="65.77" y="96" width="27" height="8" filterUnits="userSpaceOnUse" color-interpolation-filters="sRGB"><feFlood flood-color="#fff" result="bg"/><feBlend in="SourceGraphic" in2="bg"/></filter><mask id="mask-2" x="65.77" y="96" width="27" height="8" maskUnits="userSpaceOnUse"><circle class="cls-2" cx="69.27" cy="100.5" r="1.5"/></mask></defs><g id="Layer_2" data-name="Layer 2"><g id="Layer_3" data-name="Layer 3"><circle class="cls-3" cx="62.5" cy="62.5" r="62.5"/><path class="cls-4" d="M47.86,25.59l.42.18c.64.28,1.29.52,1.9.86a2.3,2.3,0,0,0,2.69-.06A12.91,12.91,0,0,1,57,24.93,1.26,1.26,0,0,0,58,24c.32-.93.71-1.83,1-2.76.13-.37.28-.56.72-.55,1.86,0,3.72,0,5.57,0a.61.61,0,0,1,.69.48c.36,1,.78,2,1.13,3a1,1,0,0,0,.78.71,18.57,18.57,0,0,1,5,2.08,1,1,0,0,0,1,0c.91-.44,1.86-.81,2.77-1.25a.77.77,0,0,1,1,.16c1.25,1.3,2.52,2.56,3.82,3.81a.71.71,0,0,1,.15,1,10.84,10.84,0,0,0-1.35,3.18c-.11,1.1,1,2,1.32,3.11a10.27,10.27,0,0,1,.62,1.79,2.24,2.24,0,0,0,1.86,1.95c.85.25,1.93.43,2.41,1s.13,1.73.15,2.63c0,1.07,0,2.14,0,3.22a.77.77,0,0,1-.58.9A10.64,10.64,0,0,0,83,49.82c-.87.7-.73,2.11-1.26,3.12A8.43,8.43,0,0,1,81,54.42,2.51,2.51,0,0,0,81,57.58c.4.69,1,1.53.87,2.19s-1,1.2-1.58,1.78c-.81.82-1.65,1.62-2.45,2.47a.76.76,0,0,1-1,.22A10.64,10.64,0,0,0,73.6,62.9c-1.12-.14-2,1-3.1,1.32a11.61,11.61,0,0,1-1.72.58,2.39,2.39,0,0,0-2.07,2c-.25.85-.37,2-1,2.4s-1.69.1-2.56.1c-1.07,0-2.15,0-3.22,0a.76.76,0,0,1-.89-.58,10.38,10.38,0,0,0-1.29-3.19c-.7-.88-2.1-.77-3.13-1.28a11,11,0,0,1-1.79-.88,2.12,2.12,0,0,0-2.52-.06c-.84.42-1.78,1.21-2.6,1s-1.35-1.19-2-1.84S44.19,61,43.43,60.25a.7.7,0,0,1-.19-1A10.37,10.37,0,0,0,44.61,56c.08-1.08-1-2-1.36-3.11a22.09,22.09,0,0,1-.76-2.3,1.47,1.47,0,0,0-1.09-1.17c-1-.38-2.49-.47-3-1.32s-.16-2.13-.15-3.24-.41-2.37.17-3.13,1.82-.89,2.81-1.2a1.78,1.78,0,0,0,1.33-1.47,16.17,16.17,0,0,1,1.89-4.45,1.1,1.1,0,0,0,.06-1.19c-.46-.94-.86-1.9-1.29-2.85a.57.57,0,0,1,.09-.76c1.37-1.33,2.71-2.7,4.06-4.05C47.48,25.68,47.59,25.52,47.86,25.59ZM50,45A12.46,12.46,0,1,0,62.47,32.54,12.49,12.49,0,0,0,50,45Z"/><path class="cls-4" d="M22.29,56.88c.15-5,.33-9.91.42-14.87a4.37,4.37,0,0,1,3.35-4,3.94,3.94,0,0,1,4.58,2.16,9.91,9.91,0,0,1,1.2,4.75c0,5.66,0,11.32,0,17A10,10,0,0,0,32,64.11a1.32,1.32,0,0,1-.11.91,5.12,5.12,0,0,0,.67,5.78,68.84,68.84,0,0,0,6.85,6.92,1.32,1.32,0,0,0,2,0,1.34,1.34,0,0,0-.09-2c-1.27-1.24-2.58-2.43-3.86-3.64A23.13,23.13,0,0,1,35,69.42a3.72,3.72,0,0,1,.4-5.29,3.88,3.88,0,0,1,5.36.23,80.27,80.27,0,0,0,10,9.21,9.36,9.36,0,0,1,3.57,7.49c.07,3.74,0,7.49,0,11.23,0,.41-.1.54-.53.54L38.56,93c-.45,0-.67-.12-.57-.58a2,2,0,0,0-.85-1.94c-4-4-8-8-12-12a10,10,0,0,1-3.22-7.94c.19-4.55.27-9.1.4-13.66Z"/><path class="cls-4" d="M102.71,56.94c.12,4.52.2,9,.39,13.57a10.1,10.1,0,0,1-3.26,8c-4.08,4-8.08,8.08-12.14,12.11A1.79,1.79,0,0,0,87,92.28c.08.49,0,.72-.63.71q-7.57-.12-15.14-.16c-.49,0-.56-.17-.56-.6,0-3.62,0-7.25,0-10.87a9.68,9.68,0,0,1,3.76-7.94,77.28,77.28,0,0,0,9.76-9,3.88,3.88,0,0,1,5.35-.27A3.72,3.72,0,0,1,90,69.4a41.23,41.23,0,0,1-4.83,4.88c-.53.49-1.07,1-1.56,1.51a1.32,1.32,0,0,0,0,1.88,1.29,1.29,0,0,0,1.87.13c2.46-2.35,5.11-4.51,7.13-7.26a5,5,0,0,0,.51-5.49,1.13,1.13,0,0,1-.16-.74,37.4,37.4,0,0,0,.16-6.17c0-4.17,0-8.35,0-12.53a11,11,0,0,1,1.22-5.45,4.09,4.09,0,0,1,6.79-.91,3.8,3.8,0,0,1,1.13,2.64q.21,7.53.44,15Z"/><g class="cls-5"><rect class="cls-4" x="32.77" y="96" width="27" height="8" rx="1.69"/></g><g class="cls-6"><rect class="cls-4" x="65.77" y="96" width="27" height="8" rx="1.69" transform="translate(158.54 200) rotate(-180)"/></g></g></g></svg>