<?xml version="1.0" encoding="utf-8"?>
<!-- Generator: Adobe Illustrator 26.0.0, SVG Export Plug-In . SVG Version: 6.00 Build 0)  -->
<svg version="1.1" id="Layer_1" xmlns="http://www.w3.org/2000/svg" xmlns:xlink="http://www.w3.org/1999/xlink" x="0px" y="0px"
	 viewBox="0 0 1061.5 387.9" style="enable-background:new 0 0 1061.5 387.9;" xml:space="preserve">
<style type="text/css">
	.st0{fill:#FFFFFF;}
	.st1{fill:url(#SVGID_1_);}
</style>
<g id="Layer_2_00000065788068979558830850000007625515030668474534_">
	<g id="Camada_6">
		<path class="st0" d="M556.7,92.9c1.3,0.6,2.4,1.5,3.2,2.7c0.8,1.2,1.2,2.7,1.2,4.1v68c0.1,2-0.7,3.9-2.1,5.3
			c-1.4,1.4-3.2,2.2-5.2,2.1c-2,0-3.8-0.8-5.2-2.1c-1.4-1.4-2.3-3.3-2.2-5.3V117l-36.8,35.4c-2.9,2.6-7.3,2.6-10.2,0L462.5,117v50.7
			c0,2-0.8,3.9-2.2,5.3c-1.4,1.4-3.3,2.2-5.2,2.1c-1.9,0-3.8-0.7-5.2-2.1c-1.4-1.4-2.2-3.3-2.1-5.3v-68c0-1.5,0.4-2.9,1.2-4.2
			c0.8-1.2,1.9-2.1,3.2-2.7c1.3-0.6,2.8-0.8,4.2-0.5c1.4,0.3,2.8,1,3.8,2l44.2,42.5l44.2-42.5c1-1,2.3-1.7,3.8-2
			C553.9,92.1,555.4,92.3,556.7,92.9z"/>
		<path class="st0" d="M645.2,94.4c3.4,1.4,6.4,3.4,9,6c2.6,2.6,4.6,5.6,6,9c1.3,3.4,2,7,2,10.6v47.7c0,2-0.7,3.9-2.2,5.3
			c-1.3,1.4-3.2,2.2-5.2,2.1c-2,0-3.8-0.8-5.2-2.1c-1.4-1.4-2.2-3.3-2.2-5.3v-26.6h-48c-5.3,0-9.6,4.3-9.6,9.6
			c0,5.3,4.3,9.6,9.6,9.6c0,0,0,0,0,0h19.2c2,0,3.8,0.8,5.2,2.1c1.4,1.3,2.2,3.2,2.2,5.2c0,2-0.8,3.9-2.2,5.3
			c-1.4,1.4-3.3,2.2-5.2,2.1h-19.1c-3.3,0-6.5-0.6-9.5-1.9c-2.9-1.2-5.5-3-7.8-5.2c-2.3-2.2-4-4.8-5.3-7.7c-2.6-6.1-2.6-12.9,0-19
			c1.2-2.9,3-5.6,5.3-7.8c2.2-2.2,4.9-4,7.8-5.2c3-1.3,6.2-1.9,9.5-1.9h48V120c0-1.7-0.3-3.4-1-5c-1.3-3.1-3.8-5.6-6.8-6.9
			c-1.6-0.7-3.3-1-5-1h-46c-2,0-3.8-0.8-5.2-2.2c-1.4-1.3-2.2-3.2-2.2-5.2c0.1-4.1,3.4-7.4,7.4-7.4h46
			C638.3,92.3,641.9,93,645.2,94.4z"/>
		<path class="st0" d="M754.9,103.1c3.3,3.4,6,7.4,7.9,11.7c1.9,4.5,2.9,9.4,2.9,14.4v38.6c0,2-0.7,3.9-2.2,5.3
			c-1.4,1.4-3.2,2.2-5.2,2.1c-4.1,0.1-7.4-3.2-7.4-7.2c0-0.1,0-0.1,0-0.2v-38.5c0-3-0.6-5.9-1.7-8.6c-2.2-5.3-6.5-9.6-11.8-11.8
			c-2.7-1.2-5.6-1.8-8.6-1.7h-13.4c-3,0-5.9,0.6-8.6,1.7c-5.3,2.3-9.6,6.5-11.8,11.8c-1.2,2.7-1.8,5.6-1.7,8.6v38.6
			c0,2-0.7,3.9-2.2,5.3c-1.3,1.4-3.2,2.2-5.2,2.1c-2,0-3.8-0.8-5.2-2.1c-1.4-1.4-2.2-3.3-2.2-5.3v-38.6c0-2.5,0.3-4.9,0.8-7.3
			c0.5-2.4,1.2-4.8,2.2-7.1c1.9-4.3,4.6-8.3,7.9-11.7c3.3-3.4,7.3-6,11.7-7.9c4.6-1.9,9.5-2.9,14.4-2.9h13.3c4.9,0,9.8,1,14.4,2.9
			C747.5,97,751.5,99.7,754.9,103.1z"/>
		<path class="st0" d="M860.7,92.3c2,0,3.8,0.8,5.2,2.2c1.4,1.4,2.2,3.3,2.2,5.2v34c0,2.7-0.2,5.4-0.6,8.1c-0.4,2.6-1.1,5.1-1.9,7.6
			c-3.4,10.3-11.1,18.6-21.2,22.6c-5.5,2.2-11.3,3.2-17.2,3.2h-5.2c-5.9,0.1-11.7-1-17.1-3.1c-5.1-2-9.6-5.2-13.3-9.2
			c-3.5-3.9-6.3-8.5-8-13.5c-1.7-5-2.6-10.3-2.5-15.7v-34c0.1-4.1,3.3-7.4,7.4-7.4c2,0,3.8,0.8,5.2,2.2c1.4,1.4,2.2,3.3,2.1,5.2v34
			c0,3.3,0.5,6.5,1.4,9.6c1.9,6.5,6.5,11.9,12.7,14.7c3.8,1.7,8,2.5,12.2,2.4h5.2c4.2,0.1,8.4-0.7,12.3-2.4c3.1-1.4,5.9-3.5,8.1-6.2
			c2.1-2.5,3.6-5.4,4.5-8.5c0.9-3.1,1.4-6.4,1.4-9.6v-34C853.3,95.7,856.6,92.4,860.7,92.3L860.7,92.3z"/>
		<path class="st0" d="M899,141.2v5.5c0,1.9,0.4,3.7,1.1,5.4c1.4,3.3,4.1,5.9,7.4,7.3c1.7,0.7,3.5,1.1,5.3,1.1H958
			c4,0,7.3,3.3,7.3,7.3c0,2-0.7,3.9-2.2,5.3c-1.3,1.4-3.2,2.2-5.2,2.1h-45.2c-15.7,0.1-28.5-12.6-28.6-28.3c0-0.1,0-0.2,0-0.2v-25.5
			c0-3.8,0.7-7.5,2.2-11c3-7,8.5-12.6,15.6-15.6c3.5-1.5,7.2-2.2,11-2.2h34c3.3,0,6.5,0.6,9.5,1.9c2.9,1.2,5.6,3,7.8,5.3
			c2.2,2.3,4,4.9,5.2,7.8c2.5,6,2.5,12.9,0,18.9c-2.5,5.9-7.1,10.5-13,13c-3,1.3-6.2,1.9-9.5,1.9L899,141.2z M899,126.4h48.1
			c2.6,0.1,5.1-1,6.8-2.8c1.8-1.8,2.8-4.2,2.8-6.8c0-2.6-1-5.1-2.8-6.9c-1.8-1.9-4.3-2.9-6.8-2.8H913c-1.9,0-3.7,0.4-5.5,1.1
			c-3.4,1.4-6.1,4.1-7.5,7.5c-0.7,1.7-1.1,3.6-1.1,5.5L899,126.4z"/>
		<path class="st0" d="M1059.3,162.6c1.4,1.3,2.2,3.2,2.2,5.2c0,2-0.8,3.9-2.2,5.3c-1.4,1.4-3.3,2.2-5.2,2.1h-36.3
			c-8.9,0.1-17.5-3.5-23.8-9.9c-3.1-3.1-5.6-6.8-7.3-10.9c-1.7-4.1-2.5-8.4-2.5-12.8V99.7c0-2,0.8-3.8,2.2-5.2
			c1.3-1.4,3.2-2.2,5.2-2.2c4.1,0,7.4,3.3,7.5,7.4v41.9c0,2.5,0.5,5,1.5,7.3c1.9,4.5,5.5,8.1,10,10c2.3,1,4.8,1.5,7.3,1.5h36.3
			C1056.1,160.4,1058,161.2,1059.3,162.6z"/>
		<path class="st0" d="M599.8,202.3v73.8h-7.8v-11.2c-3.9,7.4-11,11.6-20.4,11.6c-14.9,0-25.3-11-25.3-26.6s10.3-26.5,25.2-26.5
			c9.3,0,16.6,4.3,20.5,11.7v-32.8H599.8z M592.1,250.1c0-11.5-7.9-19.9-18.9-19.9s-19,8.4-19,19.9s7.8,19.8,19,19.8
			S592.1,261.6,592.1,250.1L592.1,250.1z"/>
		<path class="st0" d="M664.4,252.9h-42.8c1.3,10.3,8.8,17.1,19,17.1c6.1,0.1,12-2.3,16.2-6.7l4.3,4.5c-5,5.5-12.3,8.6-21.1,8.6
			c-15.4,0-26-10.8-26-26.4s10.7-26.4,26-26.5C656.8,223.5,665.2,235.2,664.4,252.9z M657.4,246.7c-0.5-10.1-7.3-16.7-17.5-16.7
			c-10,0-17.2,6.6-18.3,16.7L657.4,246.7z"/>
		<path class="st0" d="M691.2,230c-5.9,0-10.3,2.1-10.3,7.1c0,11.8,29.2,5.8,29.2,24.6c0,10.2-9.2,14.8-19.2,14.8
			c-7.5,0-15.1-2.6-20.1-7.4l3-5.7c4.8,4.3,11,6.6,17.4,6.7c6.2,0,11.1-2.4,11.2-7.7c0.3-12.7-29-6.3-28.9-24.8
			c0-10,8.7-14.2,18.2-14.2c5.9,0,11.7,1.6,16.7,4.8l-3,6C701.1,231.5,696.2,230.1,691.2,230z"/>
		<path class="st0" d="M731.6,208.8c0.1,2.8-2,5.2-4.8,5.3s-5.2-2-5.3-4.8c0-0.1,0-0.3,0-0.5c-0.1-2.8,2-5.2,4.8-5.3s5.2,2,5.3,4.8
			C731.6,208.5,731.6,208.7,731.6,208.8z M730.4,223.8v52.3h-7.7v-52.3L730.4,223.8z"/>
		<path class="st0" d="M795,223.8v46.9c0,15.3-10.4,25-26.3,25c-7.8-0.1-15.4-2.8-21.5-7.7l3.6-5.7c4.9,4.3,11.1,6.6,17.6,6.7
			c11.4,0,18.9-7.1,18.9-18.1v-8c-3.7,7-10.4,10.9-19.3,10.9c-14.1,0-23.9-10.5-23.9-25.3s9.7-25,23.7-25.1c9-0.1,15.7,4,19.5,10.9
			v-10.7H795z M787.2,248.8c0-10.9-7.5-18.8-17.9-18.8s-17.9,7.9-18,18.8c0.1,10.9,7.5,18.7,18,18.7S787.2,259.6,787.2,248.8
			L787.2,248.8z"/>
		<path class="st0" d="M860.5,243.9v32.2h-7.8v-30.2c0-9.4-5.6-14.9-14.8-14.9c-10.3,0.1-16.7,7-17.6,17.1v28h-7.8v-52.3h7.8v11.5
			c3.7-8,10.7-11.7,20.3-11.8C853.2,223.5,860.5,231.2,860.5,243.9z"/>
		<path class="st0" d="M923,252.9h-42.8c1.3,10.3,8.8,17.1,19,17.1c6.1,0.1,12-2.3,16.2-6.7l4.3,4.5c-5,5.5-12.3,8.6-21.1,8.6
			c-15.4,0-26.1-10.8-26.1-26.4s10.7-26.4,26-26.5C915.4,223.5,923.8,235.2,923,252.9z M916,246.7c-0.5-10.1-7.3-16.7-17.5-16.7
			c-10,0-17.2,6.6-18.3,16.7L916,246.7z"/>
		<path class="st0" d="M962.9,223.5v7.6c-11-0.2-17.9,6.7-18.8,17.2v27.9h-7.8v-52.3h7.8v11.6C947.5,227.8,954,223.6,962.9,223.5z"
			/>
		<linearGradient id="SVGID_1_" gradientUnits="userSpaceOnUse" x1="9.995337e-03" y1="193.915" x2="388.44" y2="193.915">
			<stop  offset="0" style="stop-color:#41C3D4"/>
			<stop  offset="1" style="stop-color:#009FD2"/>
		</linearGradient>
		<path class="st1" d="M12,0c13.3,0,26.6,0.1,39.9,0.1c107.1,0,214.2,0,321.2,0c1.2,0,2.3,0,3.5-0.1c8.7,2.2,11.8,6.1,11.8,15.2
			v357.3c0,10.2-5,15.3-15.3,15.3c-119.2,0-238.4,0-357.6,0c-10.6,0-15.5-5-15.5-15.5V15C0,6.1,3.3,2,12,0z M51.1,194.2
			c0,43.3,0,86.7,0,130c0,5,1.1,9.5,6.1,11.4s9-0.2,12.8-4c19.2-19.6,38.7-38.9,58-58.3c1.6-1.7,3-1.9,5.2-1.1
			c7.6,2.7,15.4,5.2,23.1,7.7c22.5,7.5,44.9,15,67.4,22.4c7.6,2.5,13.8-2.3,13.2-9.8c-0.2-2.9-2-4.9-3.5-7
			c-39.9-55.7-79.7-111.4-119.6-167.2C98.9,97.5,84.1,76.8,69.3,55.9c-2.3-3.2-5.3-5.1-9.3-4.6c-3.6,0.3-6.6,2.6-7.9,6
			c-0.8,2.4-1.1,4.8-1,7.3C51.1,107.8,51.1,151,51.1,194.2z M316.4,84.4l1.4,1v5.4c0,77.6,0,155.1,0,232.7c0,2.1-0.2,4.3,0.6,6.4
			c1.4,4.3,5.7,6.9,10.1,6.3c4.3-0.4,7.7-3.8,8.2-8c0.1-1.7,0.2-3.3,0.1-5c0-81.9,0-163.8,0-245.7c0-5.2,0.1-10.3,0.2-15.4
			c0.1-4.5-1.5-8.1-5.9-9.9s-8.1-0.5-11.3,2.7c-4.6,4.6-9.1,9.3-13.6,13.9c-38.6,38.5-77.2,77.1-115.8,115.6
			c-1.2,1.1-2.4,2.3-3.5,3.6c-3.4,4-2.8,10,1.2,13.4c3.5,2.9,8.5,3,12,0.1c1.1-1,2.2-2,3.2-3.1c36.5-36.4,73-72.8,109.5-109.2
			C314.1,87.5,315.3,86,316.4,84.4z"/>
	</g>
</g>
</svg>
