<svg xmlns="http://www.w3.org/2000/svg" xmlns:xlink="http://www.w3.org/1999/xlink" viewBox="0 0 468.73 143.5"><defs><style>.cls-1,.cls-10,.cls-11,.cls-12,.cls-13,.cls-14,.cls-15,.cls-16,.cls-17,.cls-18,.cls-2,.cls-3,.cls-4,.cls-5,.cls-6,.cls-7,.cls-8,.cls-9{fill:none;stroke-miterlimit:10;}.cls-1{stroke:url(#linear-gradient);}.cls-2{stroke:url(#linear-gradient-2);}.cls-3{stroke:url(#linear-gradient-3);}.cls-4{stroke:url(#linear-gradient-4);}.cls-5{stroke:url(#linear-gradient-5);}.cls-6{stroke:url(#linear-gradient-6);}.cls-7{stroke:url(#linear-gradient-7);}.cls-8{stroke:url(#linear-gradient-8);}.cls-9{stroke:url(#linear-gradient-9);}.cls-10{stroke:url(#linear-gradient-10);}.cls-11{stroke:url(#linear-gradient-11);}.cls-12{stroke:url(#linear-gradient-12);}.cls-13{stroke:url(#linear-gradient-13);}.cls-14{stroke:url(#linear-gradient-14);}.cls-15{stroke:url(#linear-gradient-15);}.cls-16{stroke:url(#linear-gradient-16);}.cls-17{stroke:url(#linear-gradient-17);}.cls-18{stroke:url(#linear-gradient-18);}.cls-19{fill:url(#linear-gradient-19);}.cls-20{fill:url(#linear-gradient-20);}.cls-21{fill:url(#linear-gradient-21);}.cls-22{fill:url(#linear-gradient-22);}.cls-23{fill:url(#linear-gradient-23);}.cls-24{fill:url(#linear-gradient-24);}.cls-25{fill:url(#linear-gradient-25);}.cls-26{fill:url(#linear-gradient-26);}.cls-27{fill:url(#linear-gradient-27);}</style><linearGradient id="linear-gradient" x1="35.93" y1="104.61" x2="35.93" y2="36.87" gradientUnits="userSpaceOnUse"><stop offset="0" stop-color="#fff"/><stop offset="0.22" stop-color="#fff" stop-opacity="0.3"/><stop offset="0.55" stop-color="#1a1a1a"/></linearGradient><linearGradient id="linear-gradient-2" x1="107.85" y1="104.42" x2="107.85" y2="33.5" xlink:href="#linear-gradient"/><linearGradient id="linear-gradient-3" x1="160.43" y1="103.86" x2="160.43" y2="51.64" xlink:href="#linear-gradient"/><linearGradient id="linear-gradient-4" x1="192.44" y1="103.86" x2="192.44" y2="30.42" xlink:href="#linear-gradient"/><linearGradient id="linear-gradient-5" x1="235.58" y1="122.65" x2="235.58" y2="51.73" xlink:href="#linear-gradient"/><linearGradient id="linear-gradient-6" x1="294.51" y1="104.61" x2="294.51" y2="51.64" xlink:href="#linear-gradient"/><linearGradient id="linear-gradient-7" x1="353.63" y1="104.51" x2="353.63" y2="33.5" xlink:href="#linear-gradient"/><linearGradient id="linear-gradient-8" x1="417.89" y1="104.42" x2="417.89" y2="51.73" xlink:href="#linear-gradient"/><linearGradient id="linear-gradient-9" x1="460.14" y1="104.61" x2="460.14" y2="37.71" xlink:href="#linear-gradient"/><linearGradient id="linear-gradient-10" x1="35.93" y1="125.46" x2="35.93" y2="57.72" xlink:href="#linear-gradient"/><linearGradient id="linear-gradient-11" x1="107.85" y1="125.27" x2="107.85" y2="54.35" xlink:href="#linear-gradient"/><linearGradient id="linear-gradient-12" x1="160.43" y1="124.71" x2="160.43" y2="72.49" xlink:href="#linear-gradient"/><linearGradient id="linear-gradient-13" x1="192.44" y1="124.71" x2="192.44" y2="51.27" xlink:href="#linear-gradient"/><linearGradient id="linear-gradient-14" x1="235.58" y1="143.5" x2="235.58" y2="72.58" xlink:href="#linear-gradient"/><linearGradient id="linear-gradient-15" x1="294.51" y1="125.46" x2="294.51" y2="72.49" xlink:href="#linear-gradient"/><linearGradient id="linear-gradient-16" x1="353.63" y1="125.37" x2="353.63" y2="54.35" xlink:href="#linear-gradient"/><linearGradient id="linear-gradient-17" x1="417.89" y1="125.27" x2="417.89" y2="72.58" xlink:href="#linear-gradient"/><linearGradient id="linear-gradient-18" x1="460.14" y1="125.46" x2="460.14" y2="58.56" xlink:href="#linear-gradient"/><linearGradient id="linear-gradient-19" x1="0.5" y1="39.82" x2="71.35" y2="39.82" gradientUnits="userSpaceOnUse"><stop offset="0" stop-color="#41c3d4"/><stop offset="1" stop-color="#009fd2"/></linearGradient><linearGradient id="linear-gradient-20" x1="80.32" y1="38.04" x2="135.38" y2="38.04" xlink:href="#linear-gradient-19"/><linearGradient id="linear-gradient-21" x1="143.98" y1="46.83" x2="176.88" y2="46.83" xlink:href="#linear-gradient-19"/><linearGradient id="linear-gradient-22" x1="184.17" y1="36.22" x2="200.71" y2="36.22" xlink:href="#linear-gradient-19"/><linearGradient id="linear-gradient-23" x1="209.31" y1="56.27" x2="261.84" y2="56.27" xlink:href="#linear-gradient-19"/><linearGradient id="linear-gradient-24" x1="270.07" y1="47.2" x2="318.95" y2="47.2" xlink:href="#linear-gradient-19"/><linearGradient id="linear-gradient-25" x1="326.05" y1="38.09" x2="381.21" y2="38.09" xlink:href="#linear-gradient-19"/><linearGradient id="linear-gradient-26" x1="390.27" y1="47.16" x2="445.51" y2="47.16" xlink:href="#linear-gradient-19"/><linearGradient id="linear-gradient-27" x1="452.05" y1="40.24" x2="468.23" y2="40.24" xlink:href="#linear-gradient-19"/></defs><g id="Layer_2" data-name="Layer 2"><g id="rodapé"><path class="cls-1" d="M71.35,70.55c0,19.16-15.14,33.56-35.42,33.56S.5,89.71.5,70.55,15.64,37.37,35.93,37.37,71.35,51.58,71.35,70.55Zm-53.28.09c0,10.66,8.32,18.89,18,18.89S53.78,81.3,53.78,70.64,45.93,52,36.11,52,18.07,60,18.07,70.64Z"/><path class="cls-2" d="M135.38,78.31c0,15.42-9.16,25.61-23.18,25.61-6.45,0-11.69-2.52-15.24-7.1v6.54H80.32V34H97V59.33a18,18,0,0,1,14.86-7.1C125.94,52.23,135.38,62.61,135.38,78.31Zm-16.73-.37c0-7.48-4.4-12.62-10.94-12.62C101.36,65.32,97,70.46,97,77.94s4.4,12.52,10.75,12.52C114.25,90.46,118.65,85.41,118.65,77.94Z"/><path class="cls-3" d="M176.88,52.14V67.37c-9.25-.93-15.42,3.18-16.27,10.19v25.8H144V52.79h16.63V61.2A18.2,18.2,0,0,1,176.88,52.14Z"/><path class="cls-4" d="M200.71,52.79v50.57H184.17V52.79Zm-.65-14.21a7.57,7.57,0,1,1-15.14,0,7.57,7.57,0,1,1,15.14,0Z"/><path class="cls-5" d="M261.84,52.79V98.87c0,14.31-11.12,23.28-27.48,23.28a42.05,42.05,0,0,1-22.62-6.54l5.8-11.5a27.8,27.8,0,0,0,15.61,5c7.57,0,12.15-3.83,12.15-9.72V93.92c-3.27,4.3-8.13,6.64-14.4,6.64-12.62,0-21.59-9.73-21.59-24.4,0-14.4,8.69-23.93,21.22-23.93,6.36,0,11.4,2.43,14.77,6.73V52.79ZM245.3,76.63c0-7.11-4.11-11.87-10.19-11.87s-10.28,4.86-10.28,11.87,4.11,11.77,10.28,11.77S245.3,83.54,245.3,76.63Z"/><path class="cls-6" d="M319,70.46v32.9H302.6v-5.7c-3.28,4.2-8.42,6.45-15.24,6.45-10.84,0-17.29-6.55-17.29-15.8,0-9.63,6.82-15.14,19.35-15.33H302.6v-.56c0-4.77-3.28-7.57-9.63-7.57-4.21,0-9.72,1.4-15.15,4l-4.58-11.22c7.95-3.55,15.24-5.51,23.56-5.51C310.73,52.14,318.86,58.87,319,70.46ZM302.6,86.25V81.86h-9.91c-4.68,0-7,1.68-7,5.24s2.52,5.7,6.82,5.7C297.45,92.8,301.57,90.09,302.6,86.25Z"/><path class="cls-7" d="M381.21,34v69.36H364.57V96.82c-3.46,4.67-8.6,7.19-15,7.19-14.21,0-23.56-10.46-23.56-26.17,0-15.42,9.26-25.61,23.19-25.61a18.65,18.65,0,0,1,15.33,7.2V34ZM364.57,78.31c0-7.57-4.4-12.62-10.85-12.62s-10.93,5.14-10.93,12.62,4.39,12.62,10.93,12.62S364.57,85.79,364.57,78.31Z"/><path class="cls-8" d="M445.51,78c0,15.61-11,25.89-27.66,25.89S390.27,93.64,390.27,78s10.94-25.8,27.58-25.8S445.51,62.51,445.51,78ZM407,78.22c0,7.57,4.4,12.61,10.85,12.61s10.93-5,10.93-12.61-4.39-12.53-10.93-12.53S407,70.74,407,78.22Z"/><path class="cls-9" d="M468,96a7.79,7.79,0,0,1-8,8.13c-4.67,0-7.95-3.37-7.95-8.13a8,8,0,1,1,16,0Zm.19-57.77V54.94l-2.9,25.71h-10l-2.9-25.71V38.21Z"/><path class="cls-10" d="M71.35,91.4c0,19.16-15.14,33.56-35.42,33.56S.5,110.56.5,91.4,15.64,58.22,35.93,58.22,71.35,72.43,71.35,91.4Zm-53.28.1c0,10.65,8.32,18.88,18,18.88s17.67-8.23,17.67-18.88S45.93,72.8,36.11,72.8,18.07,80.84,18.07,91.5Z"/><path class="cls-11" d="M135.38,99.16c0,15.42-9.16,25.61-23.18,25.61-6.45,0-11.69-2.52-15.24-7.1v6.54H80.32V54.85H97V80.18a18,18,0,0,1,14.86-7.1C125.94,73.08,135.38,83.46,135.38,99.16Zm-16.73-.37c0-7.48-4.4-12.62-10.94-12.62C101.36,86.17,97,91.31,97,98.79s4.4,12.52,10.75,12.52C114.25,111.31,118.65,106.26,118.65,98.79Z"/><path class="cls-12" d="M176.88,73V88.22c-9.25-.93-15.42,3.18-16.27,10.19v25.8H144V73.64h16.63v8.41A18.2,18.2,0,0,1,176.88,73Z"/><path class="cls-13" d="M200.71,73.64v50.57H184.17V73.64Zm-.65-14.21a7.57,7.57,0,1,1-15.14,0,7.57,7.57,0,1,1,15.14,0Z"/><path class="cls-14" d="M261.84,73.64v46.08c0,14.31-11.12,23.28-27.48,23.28a42,42,0,0,1-22.62-6.54l5.8-11.5a27.8,27.8,0,0,0,15.61,5c7.57,0,12.15-3.83,12.15-9.72v-5.42c-3.27,4.3-8.13,6.64-14.4,6.64-12.62,0-21.59-9.72-21.59-24.4,0-14.39,8.69-23.93,21.22-23.93,6.36,0,11.4,2.43,14.77,6.73V73.64ZM245.3,97.48c0-7.11-4.11-11.87-10.19-11.87s-10.28,4.86-10.28,11.87,4.11,11.78,10.28,11.78S245.3,104.4,245.3,97.48Z"/><path class="cls-15" d="M319,91.31v32.9H302.6v-5.7c-3.28,4.21-8.42,6.45-15.24,6.45-10.84,0-17.29-6.54-17.29-15.8,0-9.63,6.82-15.14,19.35-15.33H302.6v-.56c0-4.77-3.28-7.57-9.63-7.57-4.21,0-9.72,1.4-15.15,4L273.24,78.5C281.19,75,288.48,73,296.8,73,310.73,73,318.86,79.72,319,91.31Zm-16.35,15.8v-4.4h-9.91c-4.68,0-7,1.69-7,5.24s2.52,5.7,6.82,5.7C297.45,113.65,301.57,110.94,302.6,107.11Z"/><path class="cls-16" d="M381.21,54.85v69.36H364.57v-6.54c-3.46,4.67-8.6,7.2-15,7.2-14.21,0-23.56-10.47-23.56-26.18,0-15.42,9.26-25.61,23.19-25.61a18.65,18.65,0,0,1,15.33,7.2V54.85ZM364.57,99.16c0-7.57-4.4-12.62-10.85-12.62s-10.93,5.14-10.93,12.62,4.39,12.62,10.93,12.62S364.57,106.64,364.57,99.16Z"/><path class="cls-17" d="M445.51,98.88c0,15.61-11,25.89-27.66,25.89s-27.58-10.28-27.58-25.89,10.94-25.8,27.58-25.8S445.51,83.36,445.51,98.88ZM407,99.07c0,7.57,4.4,12.62,10.85,12.62s10.93-5,10.93-12.62-4.39-12.53-10.93-12.53S407,91.59,407,99.07Z"/><path class="cls-18" d="M468,116.83a7.79,7.79,0,0,1-8,8.13c-4.67,0-7.95-3.37-7.95-8.13a8,8,0,1,1,16,0Zm.19-57.77V75.79l-2.9,25.71h-10l-2.9-25.71V59.06Z"/><path class="cls-19" d="M71.35,39.63c0,19.17-15.14,33.56-35.42,33.56S.5,58.8.5,39.63,15.64,6.45,35.93,6.45,71.35,20.66,71.35,39.63Zm-53.28.1c0,10.65,8.32,18.88,18,18.88s17.67-8.23,17.67-18.88S45.93,21,36.11,21,18.07,29.07,18.07,39.73Z"/><path class="cls-20" d="M135.38,47.39c0,15.43-9.16,25.61-23.18,25.61-6.45,0-11.69-2.52-15.24-7.1v6.54H80.32V3.08H97V28.42a18.05,18.05,0,0,1,14.86-7.11C125.94,21.31,135.38,31.69,135.38,47.39ZM118.65,47c0-7.48-4.4-12.62-10.94-12.62C101.36,34.4,97,39.54,97,47s4.4,12.52,10.75,12.52C114.25,59.54,118.65,54.5,118.65,47Z"/><path class="cls-21" d="M176.88,21.22V36.46c-9.25-.94-15.42,3.17-16.27,10.18v25.8H144V21.87h16.63v8.42A18.19,18.19,0,0,1,176.88,21.22Z"/><path class="cls-22" d="M200.71,21.87V72.44H184.17V21.87Zm-.65-14.21a7.57,7.57,0,1,1-15.14,0,7.57,7.57,0,1,1,15.14,0Z"/><path class="cls-23" d="M261.84,21.87V68c0,14.3-11.12,23.27-27.48,23.27a42,42,0,0,1-22.62-6.54l5.8-11.5a27.81,27.81,0,0,0,15.61,5c7.57,0,12.15-3.84,12.15-9.73V63c-3.27,4.3-8.13,6.64-14.4,6.64-12.62,0-21.59-9.72-21.59-24.4,0-14.39,8.69-23.93,21.22-23.93,6.36,0,11.4,2.43,14.77,6.73V21.87ZM245.3,45.71c0-7.1-4.11-11.87-10.19-11.87s-10.28,4.86-10.28,11.87,4.11,11.78,10.28,11.78S245.3,52.63,245.3,45.71Z"/><path class="cls-24" d="M319,39.54v32.9H302.6v-5.7c-3.28,4.21-8.42,6.45-15.24,6.45-10.84,0-17.29-6.54-17.29-15.8,0-9.62,6.82-15.14,19.35-15.33H302.6V41.5c0-4.76-3.28-7.57-9.63-7.57-4.21,0-9.72,1.4-15.15,4l-4.58-11.22c7.95-3.55,15.24-5.51,23.56-5.51C310.73,21.22,318.86,28,319,39.54ZM302.6,55.34v-4.4h-9.91c-4.68,0-7,1.69-7,5.24s2.52,5.7,6.82,5.7C297.45,61.88,301.57,59.17,302.6,55.34Z"/><path class="cls-25" d="M381.21,3.08V72.44H364.57V65.9c-3.46,4.67-8.6,7.2-15,7.2-14.21,0-23.56-10.47-23.56-26.18,0-15.42,9.26-25.61,23.19-25.61a18.65,18.65,0,0,1,15.33,7.2V3.08ZM364.57,47.39c0-7.57-4.4-12.62-10.85-12.62s-10.93,5.14-10.93,12.62S347.18,60,353.72,60,364.57,54.87,364.57,47.39Z"/><path class="cls-26" d="M445.51,47.11c0,15.61-11,25.89-27.66,25.89s-27.58-10.28-27.58-25.89,10.94-25.8,27.58-25.8S445.51,31.59,445.51,47.11ZM407,47.3c0,7.57,4.4,12.62,10.85,12.62s10.93-5.05,10.93-12.62-4.39-12.53-10.93-12.53S407,39.82,407,47.3Z"/><path class="cls-27" d="M468,65.06a7.78,7.78,0,0,1-8,8.13c-4.67,0-7.95-3.36-7.95-8.13a8,8,0,1,1,16,0Zm.19-57.77V24l-2.9,25.71h-10L452.43,24V7.29Z"/></g></g></svg>