<svg xmlns="http://www.w3.org/2000/svg" xmlns:xlink="http://www.w3.org/1999/xlink" viewBox="0 0 94 94"><defs><style>.cls-1{fill:url(#linear-gradient);}.cls-2{fill:#fff;}</style><linearGradient id="linear-gradient" y1="47" x2="94" y2="47" gradientUnits="userSpaceOnUse"><stop offset="0" stop-color="#41c3d4"/><stop offset="1" stop-color="#009fd2"/></linearGradient></defs><g id="Layer_2" data-name="Layer 2"><g id="Layer_3" data-name="Layer 3"><circle class="cls-1" cx="47" cy="47" r="47"/><path class="cls-2" d="M72.45,66.13A7.3,7.3,0,0,1,71.29,69a5.9,5.9,0,0,1-8.76.86c-2.23-2.1-4.35-4.31-6.52-6.48-1.43-1.43-2.85-2.87-4.29-4.29a3.32,3.32,0,0,1-.89-1.51c-.68-2.51-1.38-5-2.07-7.51A1.93,1.93,0,0,1,50,47.52a2.34,2.34,0,0,1,1.26,0q3.83,1.11,7.64,2.31a2.86,2.86,0,0,1,1.07.69q5.34,5.31,10.64,10.65a5.87,5.87,0,0,1,1.73,3.38,1.42,1.42,0,0,0,.08.18ZM53.54,52.34c0,.2.05.31.08.41.29,1.07.58,2.14.89,3.2a1.77,1.77,0,0,0,.42.71q3.32,3.35,6.66,6.68l.25.23,2.83-2.83-7.15-7.09a.68.68,0,0,0-.29-.18Zm14,11.39-2.79,2.79a2.07,2.07,0,0,0,2.13.87,1.88,1.88,0,0,0,1.52-1.52A2.09,2.09,0,0,0,67.57,63.73Z"/><path class="cls-2" d="M25.53,34.64v.43q0,13.09,0,26.19A3.8,3.8,0,0,0,27.79,65a5,5,0,0,0,2.06.41c7.56,0,15.11,0,22.67,0a2,2,0,0,1,2.15,1.34A2,2,0,0,1,53,69.41H29.64A7.84,7.84,0,0,1,22,64.06a8.35,8.35,0,0,1-.44-2.67q0-16.38,0-32.76a5.92,5.92,0,0,1,6-6q19.36,0,38.72,0a5.93,5.93,0,0,1,6,6q0,11.76,0,23.51a2,2,0,1,1-4,0V34.64Zm27.22-8.08H27.44a1.86,1.86,0,0,0-1.84,1.52,21,21,0,0,0,0,2.51H52.79A6.21,6.21,0,0,1,52.75,26.56Zm15.53,2a2,2,0,1,0-4,0,2,2,0,0,0,2,2A2,2,0,0,0,68.28,28.54Zm-8,0a2,2,0,0,0-2-2,2,2,0,0,0,0,4A2,2,0,0,0,60.33,28.53Z"/></g></g></svg>