<svg xmlns="http://www.w3.org/2000/svg" xmlns:xlink="http://www.w3.org/1999/xlink" viewBox="0 0 94 94"><defs><style>.cls-1{fill:url(#linear-gradient);}.cls-2{fill:#fefefe;}</style><linearGradient id="linear-gradient" y1="47" x2="94" y2="47" gradientUnits="userSpaceOnUse"><stop offset="0" stop-color="#41c3d4"/><stop offset="1" stop-color="#009fd2"/></linearGradient></defs><g id="Layer_2" data-name="Layer 2"><g id="Layer_3" data-name="Layer 3"><circle class="cls-1" cx="47" cy="47" r="47"/><path class="cls-2" d="M57,39.67h6a2.35,2.35,0,0,1,1.17.22,1.89,1.89,0,0,1,1,1.93,1.86,1.86,0,0,1-1.58,1.54,4,4,0,0,1-.6,0H52.79c-1.52,0-2.23-.7-2.23-2.21,0-3.47,0-6.93,0-10.39a1.88,1.88,0,0,1,2.58-1.89,1.84,1.84,0,0,1,1.15,1.83v6.11l.15.12a4.91,4.91,0,0,1,.39-.51l12.5-12.54a2.26,2.26,0,0,1,1.22-.74,1.86,1.86,0,0,1,1.72,3.07c-.14.17-.31.32-.46.48L57.46,39.09a5.53,5.53,0,0,1-.52.41Z"/><path class="cls-2" d="M39.64,57.2,27.22,69.63c-.28.28-.56.58-.86.85a1.86,1.86,0,0,1-2.62,0,1.88,1.88,0,0,1,0-2.63c1.29-1.31,2.6-2.61,3.9-3.91q4.41-4.42,8.83-8.84c.15-.16.32-.3.61-.57H30.83a1.88,1.88,0,1,1,0-3.74H41.3a1.89,1.89,0,0,1,2.07,2.07q0,5.25,0,10.51a1.87,1.87,0,1,1-3.73,0c0-1.8,0-3.61,0-5.41Z"/><path class="cls-2" d="M36.94,39.44a3.31,3.31,0,0,1-.52-.38q-6.24-6.24-12.48-12.48a2,2,0,0,1-.72-1.89,1.84,1.84,0,0,1,2.91-1.16,4.88,4.88,0,0,1,.53.49q6.22,6.23,12.43,12.45a3.34,3.34,0,0,1,.37.53l.18-.11c0-.19,0-.38,0-.57,0-1.88,0-3.76,0-5.65a1.86,1.86,0,0,1,3.65-.58,2.52,2.52,0,0,1,.07.72v10.5a1.87,1.87,0,0,1-2.08,2H30.83a1.86,1.86,0,1,1,0-3.71c2,0,4,0,6,0Z"/><path class="cls-2" d="M54.28,57.07c0,2.06,0,4.12,0,6.18a1.87,1.87,0,0,1-2.63,1.81,1.8,1.8,0,0,1-1.1-1.68c0-3.64,0-7.29,0-10.93a1.79,1.79,0,0,1,1.85-1.84q5.46,0,10.91,0a1.85,1.85,0,1,1,0,3.69c-1.86,0-3.72,0-5.58,0H57l.51.54L70,67.39a2,2,0,0,1,.66,2.12,1.85,1.85,0,0,1-2.9.9c-.17-.14-.32-.31-.48-.46q-6.21-6.23-12.43-12.46c-.15-.15-.28-.34-.42-.5Z"/></g></g></svg>